<?xml version="1.0" standalone="no"?>
<!DOCTYPE svg PUBLIC "-//W3C//DTD SVG 20010904//EN"
 "http://www.w3.org/TR/2001/REC-SVG-20010904/DTD/svg10.dtd">
<svg version="1.0" xmlns="http://www.w3.org/2000/svg"
 width="900.000000pt" height="900.000000pt" viewBox="0 0 900.000000 900.000000"
 preserveAspectRatio="xMidYMid meet">

<g transform="translate(0.000000,900.000000) scale(0.100000,-0.100000)"
fill="#000000" stroke="none">
<path d="M1260 7110 l0 -450 180 0 180 0 0 -1080 0 -1080 -270 0 -270 0 0 180
0 180 -450 0 -450 0 0 -1170 0 -1170 450 0 450 0 0 180 0 180 270 0 270 0 0
-360 0 -360 1083 0 1083 0 77 -113 c235 -345 499 -608 720 -717 152 -75 47
-71 1775 -68 l1547 3 98 27 c389 107 678 396 785 785 l27 98 0 1605 0 1605
-27 97 c-108 390 -395 679 -785 786 l-98 27 -1550 3 c-1729 3 -1619 7 -1771
-67 -227 -110 -507 -393 -749 -758 l-48 -73 -273 0 -274 0 0 630 0 630 180 0
180 0 0 450 0 450 -1170 0 -1170 0 0 -450z m1980 0 l0 -90 -810 0 -810 0 0 90
0 90 810 0 810 0 0 -90z m-360 -1890 l0 -1440 180 0 180 0 0 630 0 630 180 0
180 0 0 -1260 0 -1260 -810 0 -810 0 0 2070 0 2070 450 0 450 0 0 -1440z
m4680 -1440 l0 -2160 -1260 0 -1260 0 0 90 0 90 1170 0 1170 0 0 180 0 180
-1170 0 -1170 0 0 180 0 180 1170 0 1170 0 0 180 0 180 -1170 0 -1170 0 0 180
0 180 1170 0 1170 0 0 180 0 180 -1170 0 -1170 0 0 180 0 180 1170 0 1170 0 0
180 0 180 -1170 0 -1170 0 0 180 0 180 1170 0 1170 0 0 180 0 180 -1170 0
-1170 0 0 180 0 180 1170 0 1170 0 0 180 0 180 -1170 0 -1170 0 0 90 0 90
1260 0 1260 0 0 -2160z m456 2098 c163 -60 325 -224 394 -398 51 -129 50 -94
50 -1700 0 -1606 1 -1571 -50 -1700 -80 -203 -250 -357 -467 -424 l-23 -7 0
2131 0 2131 23 -7 c12 -3 45 -15 73 -26z m-3338 -3145 l-3 -1046 -77 62 c-172
138 -384 401 -567 703 l-71 117 0 1213 0 1213 63 102 c79 131 207 314 294 423
85 107 242 266 308 313 l50 36 3 -1045 c1 -574 1 -1515 0 -2091z m-3958 957
l0 -810 -90 0 -90 0 0 810 0 810 90 0 90 0 0 -810z m900 0 l0 -450 -270 0
-270 0 0 450 0 450 270 0 270 0 0 -450z"/>
</g>
</svg>
