<?xml version="1.0" standalone="no"?>
<!DOCTYPE svg PUBLIC "-//W3C//DTD SVG 20010904//EN"
 "http://www.w3.org/TR/2001/REC-SVG-20010904/DTD/svg10.dtd">
<svg version="1.0" xmlns="http://www.w3.org/2000/svg"
 width="297.000000pt" height="521.000000pt" viewBox="0 0 297.000000 521.000000"
 preserveAspectRatio="xMidYMid meet">

<g transform="translate(0.000000,521.000000) scale(0.100000,-0.100000)"
fill="#000000" stroke="none">
<path d="M2015 5160 c-39 -53 -39 -70 1 -70 l24 0 0 -500 0 -500 -27 0 c-16 0
-54 -11 -85 -24 -177 -73 -278 -233 -266 -421 12 -188 162 -351 349 -381 l41
-7 -4 -1113 c-4 -1064 -3 -1114 14 -1114 22 0 19 -121 27 1214 l6 1009 62 13
c177 36 305 170 336 349 37 217 -131 446 -348 473 l-60 7 -3 498 -2 497 30 0
c20 0 30 5 30 15 0 20 -62 104 -77 105 -6 0 -28 -22 -48 -50z m189 -1170 c75
-28 139 -88 175 -163 32 -66 48 -157 34 -194 -7 -20 -24 -4 -167 162 -87 102
-163 185 -167 185 -4 0 -80 -83 -169 -186 -119 -137 -162 -181 -166 -169 -11
28 4 138 25 187 35 81 112 153 200 184 57 20 171 17 235 -6z m25 -299 c77 -93
141 -175 141 -184 0 -24 -83 -103 -141 -134 -48 -25 -64 -28 -149 -28 -81 0
-103 4 -145 25 -56 27 -145 110 -145 135 0 16 278 355 291 355 3 0 70 -76 148
-169z"/>
<path d="M2359 2854 c-11 -13 -14 -72 -14 -277 l0 -260 28 -8 c16 -4 34 -15
40 -23 11 -14 17 -13 55 4 23 10 42 23 42 28 0 5 -22 19 -50 30 -45 19 -50 24
-50 51 0 40 16 40 98 1 57 -27 82 -54 82 -90 0 -25 -57 -71 -111 -91 -62 -23
-77 -35 -62 -50 13 -13 162 56 200 93 19 18 33 42 33 55 0 43 -67 91 -192 138
l-48 18 0 173 c0 205 -12 255 -51 208z"/>
<path d="M1806 2829 c-3 -17 -6 -82 -6 -143 l0 -111 -236 4 c-558 8 -1079 -83
-1217 -212 -38 -36 -35 -68 10 -108 114 -100 439 -176 853 -199 208 -11 474
-13 544 -4 42 6 46 9 46 34 l0 28 -397 5 c-290 3 -435 9 -533 21 -281 36 -419
73 -465 127 -31 37 -31 49 -3 84 30 38 105 69 228 94 225 45 338 53 763 58
l407 5 0 -33 0 -34 -313 -1 c-481 0 -840 -39 -997 -106 l-45 -20 25 -14 c67
-37 227 -71 445 -94 171 -18 573 -31 732 -24 l152 7 3 51 c3 48 5 52 36 61
l32 9 0 242 c0 279 -3 304 -35 304 -17 0 -24 -7 -29 -31z"/>
<path d="M317 2084 c-4 -59 -7 -438 -7 -842 l0 -734 30 -28 c72 -67 323 -133
645 -170 154 -18 642 -24 845 -11 380 25 695 95 795 175 l29 24 4 780 c3 430
1 810 -3 846 l-7 66 -29 -15 -29 -16 0 -809 0 -809 -32 -25 c-127 -96 -534
-156 -1063 -156 -570 0 -1002 66 -1097 167 l-23 25 -5 805 c-5 804 -5 806 -26
819 -21 14 -21 13 -27 -92z"/>
<path d="M2458 2103 l-48 -14 0 -781 0 -781 30 6 c16 4 41 14 55 23 l25 16 0
774 c0 426 -3 774 -7 773 -5 -1 -29 -8 -55 -16z"/>
<path d="M202 420 c-68 -24 -112 -50 -126 -73 -33 -55 191 -134 516 -182 195
-28 439 -45 743 -52 591 -12 1135 40 1419 135 183 62 190 104 26 168 -69 27
-73 27 -99 11 -160 -102 -432 -167 -830 -197 -172 -13 -556 -13 -731 0 -384
28 -707 103 -817 190 -31 24 -34 24 -101 0z"/>
</g>
</svg>
